<?xml version="1.0" encoding="utf-8"?>
<!-- Generator: Adobe Illustrator 23.0.1, SVG Export Plug-In . SVG Version: 6.00 Build 0)  -->
<svg version="1.1" id="Layer_1" xmlns="http://www.w3.org/2000/svg" xmlns:xlink="http://www.w3.org/1999/xlink" x="0px" y="0px"
	 viewBox="0 0 130 50" style="enable-background:new 0 0 130 50;" xml:space="preserve">
<style type="text/css">
	.st0{fill:#4D5858;}
	.st1{fill:#4D5858;stroke:#323E48;stroke-width:0.3253;stroke-miterlimit:10;}
	.st2{opacity:0.71;clip-path:url(#SVGID_2_);fill-rule:evenodd;clip-rule:evenodd;fill:#F1E4B2;}
	.st3{opacity:0.6;clip-path:url(#SVGID_2_);fill-rule:evenodd;clip-rule:evenodd;fill:#D6D1C4;}
	.st4{opacity:0.6;clip-path:url(#SVGID_2_);fill-rule:evenodd;clip-rule:evenodd;fill:#FCD199;}
</style>
<g>
	<g>
		<g>
			<path class="st0" d="M62.19,17.87V6.31h7.39v29.95h-7.39V23.98H51.52v12.27h-7.39V6.31h7.39v11.56H62.19z"/>
			<path class="st0" d="M73.47,36.26V6.31h10.56c5.05,0,8.45,2.07,8.45,7.79c0,2.7-0.83,4.89-3.13,6.12v0.08
				c4.07,0.56,5.81,3.46,5.81,7.63c0,6.28-5.09,8.34-10.3,8.34H73.47z M80.87,18.07h0.83c1.96,0,4-0.36,4-2.9
				c0-2.74-2.3-2.9-4.3-2.9h-0.53V18.07z M80.87,30.3h0.94c2.19,0,5.88,0.12,5.88-3.18c0-3.62-3.66-3.26-6.07-3.26h-0.75V30.3z"/>
			<path class="st0" d="M126.44,19.54c-0.08,4.37-0.38,8.1-2.9,11.84c-2.79,4.09-6.98,5.88-11.73,5.88
				c-8.94,0-15.16-6.39-15.16-15.81c0-9.73,6.26-16.13,15.43-16.13c5.85,0,10.37,2.78,12.82,8.38l-7.02,3.1
				c-1.02-2.86-3.17-4.77-6.15-4.77c-4.87,0-7.39,4.89-7.39,9.45c0,4.65,2.64,9.37,7.51,9.37c3.21,0,5.66-1.75,5.96-5.2h-6.03v-6.12
				H126.44z"/>
		</g>
		<g>
			<path class="st0" d="M47.77,44.68c-0.27-0.38-0.7-0.58-1.14-0.58c-0.8,0-1.34,0.64-1.34,1.47c0,0.83,0.55,1.44,1.36,1.44
				c0.43,0,0.85-0.22,1.13-0.56v1.65c-0.43,0.14-0.75,0.25-1.15,0.25c-0.7,0-1.36-0.28-1.88-0.78c-0.55-0.53-0.81-1.21-0.81-2
				c0-0.72,0.26-1.42,0.74-1.93c0.49-0.53,1.2-0.85,1.91-0.85c0.42,0,0.81,0.1,1.19,0.27V44.68z"/>
			<path class="st0" d="M54.24,45.45c0,1.71-1.16,2.92-2.78,2.92c-1.61,0-2.78-1.21-2.78-2.92c0-1.6,1.33-2.72,2.78-2.72
				C52.91,42.73,54.24,43.85,54.24,45.45z M50.05,45.46c0,0.91,0.64,1.58,1.42,1.58c0.78,0,1.42-0.67,1.42-1.58
				c0-0.73-0.64-1.4-1.42-1.4C50.69,44.06,50.05,44.73,50.05,45.46z"/>
			<path class="st0" d="M55.22,42.91h1.3l2.39,3.23h0.01v-3.23h1.3v5.29h-1.3l-2.39-3.24h-0.01v3.24h-1.3V42.91z"/>
			<path class="st0" d="M64.21,44.27c-0.24-0.21-0.55-0.35-0.86-0.35c-0.24,0-0.56,0.15-0.56,0.44c0,0.31,0.35,0.43,0.58,0.5
				l0.33,0.1c0.7,0.22,1.24,0.59,1.24,1.44c0,0.53-0.12,1.07-0.52,1.42c-0.39,0.35-0.92,0.5-1.42,0.5c-0.63,0-1.25-0.22-1.76-0.6
				l0.56-1.11c0.33,0.3,0.71,0.55,1.16,0.55c0.31,0,0.63-0.16,0.63-0.53c0-0.39-0.51-0.52-0.79-0.6c-0.82-0.25-1.36-0.47-1.36-1.49
				c0-1.07,0.73-1.77,1.73-1.77c0.51,0,1.13,0.17,1.57,0.43L64.21,44.27z"/>
			<path class="st0" d="M67.93,48.19h-1.3v-4.12h-1.08v-1.16h3.46v1.16h-1.08V48.19z"/>
			<path class="st0" d="M74.03,48.19H72.4l-1.23-2.03h-0.01v2.03h-1.3v-5.29h1.95c0.99,0,1.74,0.5,1.74,1.63
				c0,0.73-0.39,1.36-1.1,1.49L74.03,48.19z M71.16,45.28h0.13c0.43,0,0.91-0.08,0.91-0.66c0-0.58-0.48-0.66-0.91-0.66h-0.13V45.28z
				"/>
			<path class="st0" d="M79.11,42.91v2.97c0,0.68-0.03,1.35-0.53,1.86c-0.42,0.43-1.08,0.59-1.66,0.59s-1.24-0.15-1.66-0.59
				c-0.5-0.51-0.53-1.18-0.53-1.86v-2.97h1.3v2.78c0,0.69,0.05,1.44,0.89,1.44c0.84,0,0.89-0.75,0.89-1.44v-2.78H79.11z"/>
			<path class="st0" d="M83.89,44.68c-0.27-0.38-0.7-0.58-1.14-0.58c-0.8,0-1.34,0.64-1.34,1.47c0,0.83,0.55,1.44,1.36,1.44
				c0.43,0,0.85-0.22,1.13-0.56v1.65c-0.43,0.14-0.75,0.25-1.15,0.25c-0.7,0-1.36-0.28-1.88-0.78c-0.55-0.53-0.81-1.21-0.81-2
				c0-0.72,0.26-1.42,0.74-1.93c0.49-0.53,1.2-0.85,1.91-0.85c0.42,0,0.81,0.1,1.19,0.27V44.68z"/>
			<path class="st0" d="M87.07,48.19h-1.3v-4.12h-1.08v-1.16h3.46v1.16h-1.08V48.19z"/>
			<path class="st0" d="M90.3,48.19h-1.3v-5.29h1.3V48.19z"/>
			<path class="st0" d="M96.82,45.45c0,1.71-1.16,2.92-2.78,2.92c-1.61,0-2.78-1.21-2.78-2.92c0-1.6,1.33-2.72,2.78-2.72
				C95.49,42.73,96.82,43.85,96.82,45.45z M92.63,45.46c0,0.91,0.64,1.58,1.42,1.58c0.78,0,1.42-0.67,1.42-1.58
				c0-0.73-0.64-1.4-1.42-1.4C93.27,44.06,92.63,44.73,92.63,45.46z"/>
			<path class="st0" d="M97.8,42.91h1.3l2.39,3.23h0.01v-3.23h1.3v5.29h-1.3l-2.39-3.24h-0.01v3.24h-1.3V42.91z"/>
			<path class="st0" d="M110.28,44.68c-0.27-0.38-0.7-0.58-1.14-0.58c-0.8,0-1.34,0.64-1.34,1.47c0,0.83,0.55,1.44,1.36,1.44
				c0.43,0,0.85-0.22,1.13-0.56v1.65c-0.43,0.14-0.75,0.25-1.15,0.25c-0.7,0-1.36-0.28-1.88-0.78c-0.55-0.53-0.81-1.21-0.81-2
				c0-0.72,0.26-1.42,0.74-1.93c0.49-0.53,1.2-0.85,1.91-0.85c0.42,0,0.81,0.1,1.19,0.27V44.68z"/>
			<path class="st0" d="M116.76,45.45c0,1.71-1.16,2.92-2.78,2.92c-1.61,0-2.78-1.21-2.78-2.92c0-1.6,1.33-2.72,2.78-2.72
				C115.43,42.73,116.76,43.85,116.76,45.45z M112.57,45.46c0,0.91,0.64,1.58,1.42,1.58c0.78,0,1.42-0.67,1.42-1.58
				c0-0.73-0.64-1.4-1.42-1.4C113.2,44.06,112.57,44.73,112.57,45.46z"/>
			<path class="st0" d="M121.91,48.19h-1.62l-1.23-2.03h-0.01v2.03h-1.3v-5.29h1.95c0.99,0,1.74,0.5,1.74,1.63
				c0,0.73-0.39,1.36-1.1,1.49L121.91,48.19z M119.04,45.28h0.13c0.43,0,0.91-0.08,0.91-0.66c0-0.58-0.48-0.66-0.91-0.66h-0.13
				V45.28z"/>
			<path class="st0" d="M122.64,42.91h2c1.08,0,1.82,0.53,1.82,1.74c0,1.25-0.64,1.79-1.78,1.79h-0.74v1.75h-1.3V42.91z
				 M123.94,45.33h0.22c0.47,0,0.94,0,0.94-0.64c0-0.67-0.43-0.67-0.94-0.67h-0.22V45.33z"/>
		</g>
		<line class="st1" x1="41.63" y1="39.12" x2="129" y2="39.12"/>
	</g>
	<g>
		<defs>
			<rect id="SVGID_1_" x="1" y="1.12" width="37.11" height="47.76"/>
		</defs>
		<clipPath id="SVGID_2_">
			<use xlink:href="#SVGID_1_"  style="overflow:visible;opacity:0.1;"/>
		</clipPath>
		<rect x="2.26" y="22.78" class="st2" width="17.44" height="27.1"/>
		<path class="st3" d="M10.64,49.69l-0.18-37.46l23.16-6.53V49.9C33.62,49.9,10.64,50.12,10.64,49.69z"/>
		<path class="st4" d="M37.44,49.53l0.11-28.62l-14.06-4.99V49.7C23.48,49.7,37.44,49.87,37.44,49.53z"/>
	</g>
</g>
</svg>
